<svg width="160" height="160" viewBox="0 0 160 160" fill="none" xmlns="http://www.w3.org/2000/svg">
<path fill-rule="evenodd" clip-rule="evenodd" d="M50.4331 133.22C46.8685 133.654 43.6322 132.854 40.7241 130.822C37.8156 128.789 35.9411 125.998 35.1001 122.448C34.173 118.535 34.8084 115.012 37.0053 111.879C39.2022 108.746 42.2929 106.937 46.2764 106.453C48.583 106.172 50.7808 106.458 52.8704 107.311C54.96 108.163 56.7723 109.496 58.3073 111.309L56.1501 113.131C53.5743 110.111 50.4386 108.826 46.7427 109.276C43.6236 109.655 41.2441 111.078 39.6036 113.543C37.9631 116.009 37.5139 118.809 38.2571 121.945C38.92 124.744 40.3494 126.936 42.545 128.522C44.741 130.108 47.2279 130.731 50.0061 130.394C53.4395 129.976 56.0134 128.263 57.7279 125.256L60.2652 126.747C59.2628 128.548 57.9109 130.012 56.2091 131.139C54.5073 132.266 52.5823 132.96 50.4327 133.221L50.4331 133.22ZM75.6821 130.15C72.1175 130.584 68.8911 129.77 66.0029 127.708C63.1147 125.647 61.2564 122.867 60.4276 119.368C59.4946 115.429 60.1214 111.901 62.3084 108.782C64.495 105.664 67.5676 103.864 71.5255 103.383C75.0901 102.949 78.3165 103.763 81.2047 105.825C84.0929 107.886 85.9512 110.666 86.78 114.165C87.7071 118.078 87.0718 121.601 84.8748 124.734C82.6779 127.867 79.6134 129.673 75.6821 130.15ZM75.1767 127.333C78.243 126.96 80.6018 125.533 82.2522 123.053C83.9031 120.573 84.3567 117.765 83.614 114.629C82.9633 111.882 81.5452 109.709 79.3595 108.109C77.1738 106.508 74.705 105.875 71.9525 106.21C68.86 106.586 66.4998 108.006 64.8724 110.47C63.245 112.934 62.7995 115.721 63.5363 118.831C64.1933 121.603 65.616 123.797 67.8048 125.41C69.9936 127.023 72.4508 127.664 75.1771 127.333H75.1767ZM106.94 99.516L106.956 100.434L92.7549 124.835L108.324 122.943L108.496 125.721L87.8952 128.226L87.8406 127.312L101.963 102.921L88.3204 104.579L88.108 101.806L106.94 99.5156V99.516ZM129.145 123.21L126.614 118.159L113.994 119.693L112.082 125.284L108.623 125.705L118.328 97.6912L119.429 97.5575L132.252 122.832L129.146 123.209L129.145 123.21ZM125.262 115.524L119.367 103.444L114.961 116.776L125.262 115.524Z" fill="white"/>
<path fill-rule="evenodd" clip-rule="evenodd" d="M9.5602 80.5029C9.5602 67.439 12.498 57.5207 17.2752 47.9663C20.7059 41.1045 24.9072 35.5333 30.2205 30.2202L34.1179 26.5706C38.6502 22.5338 45.3191 18.3011 50.8195 15.8512C69.6892 7.44651 90.3112 7.44651 109.181 15.8512C112.757 17.4441 117.147 20.0263 120.303 22.2132L126.378 26.9557L132.926 33.4892C135.021 35.7409 137.843 39.7697 139.498 42.2627C146.124 52.2387 150.44 66.7342 150.44 79.4964C150.44 92.5603 147.502 102.479 142.725 112.033C140.496 116.492 138.08 120.1 135.04 123.97C134.678 124.431 134.369 124.759 134.016 125.21C132.627 126.985 129.081 130.588 127.643 131.919C123.806 135.468 119.468 138.457 114.994 141.156L109.181 144.149C90.3112 152.553 69.6892 152.553 50.8195 144.149C44.5372 141.35 38.8631 137.433 33.6224 133.044L28.0804 127.643C27.8437 127.386 27.8477 127.334 27.6362 127.081L26.5707 125.882C15.9224 113.928 9.5602 96.5872 9.5602 80.5029ZM76.9817 0.000145164H83.1004C85.7361 0.100571 88.342 0.332496 90.8735 0.699073C93.7753 1.11924 96.5066 1.60651 99.1197 2.264C111.617 5.40873 122.547 11.1663 132.289 19.4084C134.131 20.9666 136.956 23.6002 138.521 25.3781C141.084 28.2887 143.278 30.9678 145.588 34.1602C147.656 37.0185 149.574 40.1461 151.155 43.3107C152.835 46.6734 154.259 50.0788 155.58 53.6027C156.485 56.0197 157.253 58.6294 157.808 61.1847C159.109 67.1584 159.848 72.64 160 78.0702V82.2687C159.849 87.6187 159.12 93.0282 157.786 98.9173C156.733 103.562 154.753 109.335 152.703 113.457C150.193 118.503 150.43 118.031 147.507 122.978C145.962 125.592 143.374 129.133 141.287 131.475C140.894 131.917 140.467 132.364 140.107 132.811L136.635 136.508C134.987 138.156 133.253 139.631 131.54 141.225C128.666 143.902 124.782 146.262 121.509 148.427C115.225 152.582 105.924 156.018 99.0192 157.76C93.957 159.038 88.4949 159.793 83.0183 159.999H76.8996C74.2639 159.899 71.658 159.667 69.1265 159.3C59.192 157.861 50.0083 154.766 41.4248 150.147C40.8837 149.855 40.4504 149.569 39.9129 149.268C35.5523 146.832 31.5147 143.809 27.7106 140.59C25.736 138.92 23.9364 137.077 22.1069 135.251L18.6541 131.408C13.7313 125.597 9.4159 118.703 6.46816 111.644C6.20572 111.015 6.01453 110.572 5.76832 109.955C4.81054 107.556 3.97045 105.185 3.22551 102.686C2.84357 101.405 2.48148 100.147 2.19153 98.8142C0.581251 91.4133 0 86.6915 0 78.4899C0 67.1922 3.07896 54.8313 8.09242 44.8211C8.38282 44.2415 8.59295 43.8056 8.88741 43.226L9.76763 41.5908C11.0889 38.9834 12.792 36.4574 14.4645 34.0864C15.1454 33.1208 15.7835 32.2044 16.5312 31.2474L18.7128 28.5233C20.999 25.9586 23.2306 23.3048 25.8749 21.0945L27.8522 19.2981C30.8965 16.9298 33.4334 14.6092 36.9412 12.5381C37.4846 12.217 37.9973 11.8981 38.4906 11.5716C39.9282 10.621 41.6111 9.72613 43.1433 8.92858C48.8061 5.98066 54.4247 3.89243 60.9808 2.23833C66.043 0.96072 71.5051 0.20595 76.9817 -0.000305176V0.000145164Z" fill="white"/>
<path fill-rule="evenodd" clip-rule="evenodd" d="M70.0367 47.3716C70.0367 46.4011 69.9524 44.9785 71.1798 44.502C72.0524 44.1629 72.8081 44.5466 73.3912 44.9893C75.3406 46.47 76.1342 49.8142 75.0429 51.2841C73.4187 53.4723 70.0367 50.0538 70.0367 47.3711V47.3716ZM73.6022 28.0151C73.0539 27.6134 70.9728 23.4855 70.4709 22.6371C70.2789 22.3129 70.1796 22.1116 69.9844 21.7869C69.7661 21.4239 69.6543 21.3302 69.5506 20.8844H69.3075C69.2918 21.5964 68.9238 22.534 68.7479 23.2406C68.5405 24.0755 68.3958 24.7505 68.1626 25.5715C66.8477 30.2001 65.6897 34.8908 64.5187 39.5456C62.1531 48.9495 59.6296 58.1347 57.2785 67.5405L51.2279 90.8928C50.9709 91.9214 50.3224 94.9103 49.9883 95.607C50.6908 95.4192 51.9232 93.7723 52.4472 93.2058C52.7358 92.8937 52.9942 92.6618 53.2995 92.3569L60.6528 85.0087C60.9955 84.6628 61.0952 84.4386 61.4379 84.0927C64.1498 81.3519 67.0267 78.7242 69.643 75.8952L71.2208 74.1924C72.4708 72.9423 75.3243 70.4163 76.1112 69.2414C75.7387 69.2725 75.5268 69.3567 75.2607 69.4841C75.7726 67.2878 76.3732 65.8224 76.2339 62.9218C76.1883 61.968 75.718 60.6818 75.3847 60.004C74.8554 58.9277 74.496 58.5967 73.5603 57.9406C71.3602 56.3982 66.427 53.0882 67.3631 49.072C68.518 49.9182 69.5393 52.0659 72.097 53.3287C73.2897 53.9177 75.6562 53.7011 76.352 52.3505C76.9436 51.203 76.8462 48.1736 76.8381 46.7618C76.8322 45.7422 76.9612 44.9866 76.9612 43.8472C78.011 45.3581 79.0432 52.5018 79.0233 54.1784C79.0071 55.5425 79.7926 56.0212 80.2607 57.1935C81.5661 60.4638 81.802 64.1391 79.532 66.9514C79.1054 67.4797 77.772 68.5709 77.083 68.7546C77.248 69.3734 78.3821 69.7787 78.8808 70.1155L80.8104 71.3449C81.204 71.5773 81.3934 71.7165 81.7708 71.9637C82.1415 72.2064 82.3746 72.3204 82.7449 72.569L88.5267 76.2645C89.8371 77.1052 91.1187 77.8726 92.3903 78.7188L101.088 84.2364C101.456 84.4606 101.674 84.6385 102.041 84.8628L103.984 86.0792C105.291 86.9357 106.572 87.8337 107.944 88.5592C107.808 87.9769 98.3777 71.5089 96.5745 68.4601L85.1082 48.3366C83.2986 45.1933 79.2186 38.204 77.4473 34.8562L83.3171 29.4264C85.3959 27.6791 87.5991 25.8922 88.8703 23.4374C89.6004 22.0278 89.9214 20.6115 90.1036 18.9583C90.1537 18.503 90.2303 17.968 90.0432 17.5226C90.0337 17.4996 90.0112 17.4586 90.0031 17.4406C89.9949 17.4226 89.9778 17.3857 89.9616 17.36C89.9616 19.4708 88.648 21.1577 87.6713 22.3597C86.8592 23.359 85.9221 24.2498 85.0108 25.1667L81.1283 28.6955C80.7914 28.977 80.529 29.2918 80.2138 29.6039C79.3155 30.4928 78.2261 31.2872 77.4293 32.2865C77.1005 32.699 76.9139 32.9832 76.4755 33.2768C76.3795 32.9175 76.426 33.08 76.2325 32.7909C76.7182 31.8736 78.7631 29.8578 79.605 29.1166C79.8323 28.9166 79.8616 28.9333 80.0839 28.7451C80.2719 28.5861 80.3333 28.4911 80.5213 28.3316L83.4303 25.8949C85.3192 24.2313 87.1459 22.1305 87.7529 19.6468C88.0433 18.4593 88.0176 17.8369 88.0176 16.3882H87.8963C87.8963 17.4253 87.5328 18.3314 87.118 19.0119C86.7063 19.6878 86.2003 20.4277 85.6786 20.9744L80.4537 26.0772C79.0607 27.4913 77.4266 28.7424 76.1464 30.2749C75.7919 30.6991 75.7279 30.8977 75.2603 31.2111C75.4353 29.108 82.3873 24.4209 83.9119 22.0021C84.3182 21.3577 84.6257 20.7772 84.8363 20.0103C85.1262 18.9533 85.1019 18.5507 85.1019 17.2384H84.9806C84.9806 18.6948 83.833 20.2841 83.0677 21.0361C82.5532 21.5419 82.2826 22.0318 81.7181 22.4813L79.4801 24.4961C79.2059 24.76 79.031 24.9739 78.755 25.2293C78.4439 25.5166 78.2775 25.5805 77.9614 25.8935L74.4098 29.6322C74.4247 28.9653 74.9212 28.2537 75.2202 27.7696C75.4014 27.4764 75.5692 27.2603 75.7838 26.9968C78.9336 23.1397 83.401 21.9728 83.401 16.5102C83.3604 16.5102 83.3198 16.5102 83.2797 16.5102C81.4831 22.5218 73.9107 24.302 73.6018 28.0146L73.6022 28.0151Z" fill="white"/>
<path fill-rule="evenodd" clip-rule="evenodd" d="M56.3086 94.6353L103.086 89.6536C102.872 89.3604 101.962 88.8988 101.556 88.6322L93.6475 83.783C92.5157 83.1079 91.5394 82.4621 90.4121 81.7938L79.3408 75.0045C78.7294 74.637 78.2424 74.3484 77.6922 73.98L58.9632 91.944C58.5236 92.2949 56.5801 94.2295 56.3086 94.6348V94.6353Z" fill="white"/>
</svg>
