<svg width="240" height="240" viewBox="0 0 240 240" fill="none" xmlns="http://www.w3.org/2000/svg">
<path fill-rule="evenodd" clip-rule="evenodd" d="M75.6497 199.831C70.3028 200.481 65.4483 199.282 61.0862 196.233C56.7234 193.184 53.9116 188.998 52.6502 183.672C51.2595 177.802 52.2125 172.518 55.5079 167.818C58.8034 163.119 63.4394 160.405 69.4147 159.679C72.8744 159.258 76.1712 159.687 79.3056 160.966C82.4401 162.245 85.1585 164.244 87.461 166.963L84.2251 169.696C80.3615 165.167 75.6578 163.24 70.1141 163.914C65.4354 164.483 61.8661 166.617 59.4053 170.315C56.9446 174.013 56.2709 178.214 57.3856 182.917C58.3799 187.116 60.5241 190.404 63.8175 192.782C67.1115 195.162 70.8419 196.097 75.0092 195.591C80.1593 194.964 84.0201 192.395 86.5918 187.884L90.3979 190.12C88.8942 192.822 86.8664 195.018 84.3137 196.709C81.761 198.399 78.8734 199.44 75.649 199.831L75.6497 199.831ZM113.523 195.226C108.176 195.876 103.337 194.655 99.0044 191.562C94.672 188.47 91.8846 184.3 90.6414 179.053C89.2419 173.144 90.1821 167.851 93.4626 163.174C96.7425 158.496 101.351 155.796 107.288 155.074C112.635 154.424 117.475 155.645 121.807 158.737C126.139 161.83 128.927 166 130.17 171.247C131.561 177.117 130.608 182.401 127.312 187.101C124.017 191.8 119.42 194.509 113.523 195.226ZM112.765 190.999C117.364 190.44 120.903 188.3 123.378 184.58C125.855 180.86 126.535 176.648 125.421 171.944C124.445 167.824 122.318 164.564 119.039 162.163C115.761 159.762 112.057 158.812 107.929 159.315C103.29 159.879 99.7497 162.009 97.3086 165.705C94.8675 169.401 94.1992 173.582 95.3045 178.246C96.29 182.405 98.424 185.695 101.707 188.115C104.99 190.535 108.676 191.496 112.766 190.999H112.765ZM160.41 149.274L160.433 150.652L139.132 187.253L162.486 184.414L162.745 188.581L131.843 192.339L131.761 190.969L152.944 154.381L132.481 156.869L132.162 152.708L160.41 149.274V149.274ZM193.718 184.815L189.921 177.238L170.991 179.54L168.123 187.927L162.934 188.558L177.491 146.537L179.143 146.336L198.377 184.248L193.718 184.814L193.718 184.815ZM187.892 173.286L179.05 155.166L172.441 175.164L187.892 173.286Z" fill="white"/>
<path fill-rule="evenodd" clip-rule="evenodd" d="M14.3403 120.754C14.3403 101.159 18.747 86.2812 25.9128 71.9496C31.0588 61.6568 37.3608 53.3001 45.3308 45.3304L51.1769 39.8561C57.9754 33.8009 67.9786 27.4517 76.2293 23.777C104.534 11.1699 135.467 11.1699 163.771 23.777C169.136 26.1662 175.721 30.0396 180.455 33.3199L189.567 40.4337L199.389 50.234C202.532 53.6115 206.764 59.6546 209.248 63.3943C219.186 78.3581 225.66 100.101 225.66 119.245C225.66 138.841 221.254 153.718 214.088 168.05C210.744 174.739 207.12 180.15 202.56 185.955C202.017 186.647 201.554 187.139 201.024 187.815C198.94 190.478 193.622 195.883 191.464 197.879C185.709 203.202 179.203 207.686 172.491 211.735L163.771 216.223C135.467 228.83 104.534 228.83 76.2293 216.223C66.8057 212.025 58.2946 206.15 50.4335 199.566L42.1206 191.464C41.7655 191.08 41.7716 191.001 41.4544 190.621L39.856 188.823C23.8836 170.891 14.3403 144.881 14.3403 120.754ZM115.473 0.000370334H124.651C128.604 0.151009 132.513 0.498897 136.31 1.04876C140.663 1.67901 144.76 2.40991 148.68 3.39616C167.425 8.11324 183.82 16.7496 198.434 29.1128C201.196 31.4501 205.433 35.4005 207.782 38.0674C211.626 42.4332 214.917 46.4518 218.382 51.2405C221.484 55.5279 224.361 60.2194 226.732 64.9662C229.253 70.0102 231.388 75.1184 233.369 80.4043C234.728 84.0297 235.879 87.9443 236.713 91.7771C238.663 100.738 239.772 108.96 240 117.105V123.403C239.773 131.428 238.68 139.542 236.679 148.376C235.1 155.343 232.13 164.003 229.055 170.186C225.29 177.755 225.645 177.047 221.26 184.467C218.944 188.388 215.061 193.7 211.931 197.213C211.34 197.875 210.7 198.546 210.161 199.216L204.952 204.763C202.481 207.235 199.879 209.446 197.311 211.838C192.998 215.853 187.173 219.394 182.264 222.64C172.838 228.874 158.886 234.027 148.529 236.641C140.936 238.557 132.742 239.689 124.527 239.999H115.349C111.396 239.848 107.487 239.5 103.69 238.95C88.788 236.792 75.0125 232.149 62.1372 225.22C61.3256 224.783 60.6756 224.353 59.8693 223.903C53.3285 220.248 47.2721 215.714 41.566 210.886C38.604 208.38 35.9045 205.616 33.1604 202.876L27.9812 197.112C20.597 188.395 14.1239 178.054 9.70224 167.467C9.30858 166.523 9.02179 165.858 8.65248 164.932C7.21581 161.334 5.95568 157.778 4.83827 154.029C4.26536 152.108 3.72221 150.22 3.28729 148.221C0.871876 137.12 0 130.037 0 117.735C0 100.788 4.61844 82.2471 12.1386 67.2318C12.5742 66.3624 12.8894 65.7086 13.3311 64.8392L14.6514 62.3864C16.6333 58.4752 19.188 54.6863 21.6968 51.1297C22.7182 49.6814 23.6753 48.3067 24.7967 46.8713L28.0691 42.7851C31.4985 38.9381 34.846 34.9573 38.8124 31.6419L41.7784 28.9473C46.3447 25.3948 50.1501 21.9139 55.4118 18.8072C56.2269 18.3256 56.996 17.8473 57.7359 17.3576C59.8923 15.9316 62.4166 14.5894 64.715 13.393C73.2092 8.97114 81.6371 5.8388 91.4712 3.35765C99.0645 1.44123 107.258 0.309078 115.473 -0.000305176V0.000370334Z" fill="white"/>
<path fill-rule="evenodd" clip-rule="evenodd" d="M105.055 71.0575C105.055 69.6017 104.929 67.4678 106.77 66.7531C108.079 66.2445 109.212 66.82 110.087 67.484C113.011 69.7051 114.201 74.7214 112.564 76.9263C110.128 80.2086 105.055 75.0808 105.055 71.0568V71.0575ZM110.403 42.0227C109.581 41.4202 106.459 35.2284 105.706 33.9558C105.418 33.4694 105.269 33.1674 104.977 32.6804C104.649 32.1359 104.481 31.9954 104.326 31.3267H103.961C103.938 32.3947 103.386 33.8011 103.122 34.861C102.811 36.1133 102.594 37.1259 102.244 38.3574C100.272 45.3003 98.5346 52.3364 96.778 59.3185C93.2296 73.4244 89.4445 87.2021 85.9177 101.311L76.8418 136.339C76.4563 137.882 75.4836 142.366 74.9824 143.411C76.0362 143.129 77.8848 140.659 78.6708 139.809C79.1037 139.341 79.4913 138.993 79.9492 138.535L90.9792 127.513C91.4933 126.994 91.6428 126.658 92.1568 126.139C96.2247 122.028 100.54 118.086 104.465 113.843L106.831 111.289C108.706 109.414 112.986 105.625 114.167 103.862C113.608 103.909 113.29 104.035 112.891 104.226C113.659 100.932 114.56 98.7338 114.351 94.3828C114.282 92.9521 113.577 91.0228 113.077 90.0062C112.283 88.3917 111.744 87.8952 110.34 86.911C107.04 84.5974 99.6405 79.6324 101.045 73.6082C102.777 74.8775 104.309 78.099 108.146 79.9931C109.935 80.8767 113.484 80.5517 114.528 78.5259C115.415 76.8047 115.269 72.2605 115.257 70.1428C115.248 68.6135 115.442 67.48 115.442 65.7709C117.016 68.0373 118.565 78.7529 118.535 81.2678C118.511 83.3139 119.689 84.032 120.391 85.7903C122.349 90.6959 122.703 96.2087 119.298 100.427C118.658 101.22 116.658 102.856 115.624 103.132C115.872 104.06 117.573 104.668 118.321 105.173L121.216 107.018C121.806 107.366 122.09 107.575 122.656 107.946C123.212 108.31 123.562 108.481 124.117 108.854L132.79 114.397C134.756 115.658 136.678 116.809 138.585 118.078L151.632 126.355C152.184 126.691 152.511 126.958 153.062 127.294L155.976 129.119C157.936 130.404 159.858 131.751 161.916 132.839C161.712 131.965 147.567 107.263 144.862 102.69L127.662 72.5051C124.948 67.79 118.828 57.3061 116.171 52.2844L124.976 44.1398C128.094 41.5188 131.399 38.8384 133.305 35.1561C134.401 33.0418 134.882 30.9173 135.155 28.4375C135.23 27.7546 135.345 26.9521 135.065 26.284C135.051 26.2496 135.017 26.1881 135.005 26.1611C134.992 26.134 134.967 26.0787 134.942 26.0401C134.942 29.2063 132.972 31.7367 131.507 33.5397C130.289 35.0386 128.883 36.3748 127.516 37.7501L121.692 43.0434C121.187 43.4656 120.793 43.9378 120.321 44.4059C118.973 45.7394 117.339 46.931 116.144 48.4299C115.651 49.0487 115.371 49.4749 114.713 49.9154C114.569 49.3763 114.639 49.6202 114.349 49.1865C115.077 47.8105 118.145 44.7869 119.408 43.675C119.748 43.3751 119.792 43.4001 120.126 43.1177C120.408 42.8793 120.5 42.7367 120.782 42.4976L125.145 38.8424C127.979 36.3471 130.719 33.1958 131.629 29.4704C132.065 27.6891 132.026 26.7555 132.026 24.5824H131.844C131.844 26.1381 131.299 27.4972 130.677 28.5179C130.059 29.5319 129.301 30.6417 128.518 31.4618L120.681 39.116C118.591 41.2371 116.14 43.1137 114.22 45.4124C113.688 46.0487 113.592 46.3466 112.89 46.8168C113.153 43.6622 123.581 36.6315 125.868 33.0033C126.477 32.0366 126.939 31.1659 127.254 30.0155C127.689 28.4301 127.653 27.8262 127.653 25.8578H127.471C127.471 28.0424 125.749 30.4262 124.602 31.5543C123.83 32.3129 123.424 33.0479 122.577 33.722L119.22 36.7443C118.809 37.1401 118.546 37.461 118.133 37.844C117.666 38.275 117.416 38.3709 116.942 38.8404L111.615 44.4485C111.637 43.448 112.382 42.3807 112.83 41.6546C113.102 41.2148 113.354 40.8905 113.676 40.4954C118.4 34.7096 125.101 32.9594 125.101 24.7655C125.041 24.7655 124.98 24.7655 124.919 24.7655C122.225 33.7828 110.866 36.4531 110.403 42.022L110.403 42.0227Z" fill="white"/>
<path fill-rule="evenodd" clip-rule="evenodd" d="M84.4629 141.953L154.63 134.481C154.308 134.041 152.943 133.348 152.334 132.948L140.471 125.675C138.774 124.662 137.309 123.693 135.618 122.691L119.011 112.507C118.094 111.956 117.364 111.523 116.538 110.97L88.4448 137.916C87.7854 138.442 84.8701 141.344 84.4629 141.952V141.953Z" fill="white"/>
</svg>
