<svg width="80" height="80" viewBox="0 0 80 80" fill="none" xmlns="http://www.w3.org/2000/svg">
<path fill-rule="evenodd" clip-rule="evenodd" d="M25.2166 66.6102C23.4343 66.8268 21.8161 66.4272 20.3621 65.411C18.9078 64.3948 17.9706 62.9992 17.5501 61.2239C17.0865 59.2674 17.4042 57.5059 18.5027 55.9394C19.6011 54.3729 21.1465 53.4684 23.1382 53.2263C24.2915 53.086 25.3904 53.229 26.4352 53.6553C27.48 54.0815 28.3862 54.7478 29.1537 55.6543L28.0751 56.5654C26.7872 55.0556 25.2193 54.4132 23.3714 54.6379C21.8118 54.8275 20.622 55.5388 19.8018 56.7716C18.9815 58.0044 18.757 59.4048 19.1285 60.9724C19.46 62.3718 20.1747 63.468 21.2725 64.2608C22.3705 65.0539 23.614 65.3657 25.0031 65.1968C26.7198 64.9881 28.0067 64.1318 28.864 62.6279L30.1327 63.3734C29.6314 64.2741 28.9555 65.0061 28.1046 65.5695C27.2537 66.1329 26.2912 66.4799 25.2164 66.6105L25.2166 66.6102ZM37.8411 65.0752C36.0588 65.2919 34.4456 64.885 33.0015 63.8541C31.5574 62.8233 30.6282 61.4333 30.2138 59.6842C29.7473 57.7146 30.0607 55.9504 31.1543 54.3911C32.2475 52.8318 33.7839 51.9318 35.7628 51.6913C37.5451 51.4747 39.1583 51.8816 40.6024 52.9124C42.0465 53.9433 42.9757 55.3332 43.3901 57.0824C43.8536 59.0389 43.536 60.8004 42.4375 62.3669C41.339 63.9334 39.8067 64.8363 37.8411 65.0752ZM37.5884 63.6663C39.1216 63.4799 40.301 62.7666 41.1262 61.5266C41.9516 60.2865 42.1784 58.8826 41.8071 57.3147C41.4817 55.9412 40.7726 54.8545 39.6798 54.0543C38.587 53.254 37.3525 52.9374 35.9763 53.1049C34.4301 53.293 33.25 54.0029 32.4363 55.2351C31.6225 56.467 31.3998 57.8605 31.7682 59.4154C32.0967 60.8017 32.808 61.8983 33.9025 62.7049C34.9969 63.5117 36.2254 63.8321 37.5886 63.6663H37.5884ZM53.4702 49.758L53.4779 50.2171L46.3775 62.4178L54.162 61.4714L54.2483 62.8605L43.9477 64.1129L43.9204 63.6562L50.9815 51.4603L44.1603 52.2896L44.0541 50.9028L53.4702 49.7578V49.758ZM64.5727 61.6049L63.3071 59.0794L56.997 59.8468L56.0412 62.6423L54.3115 62.8526L59.1639 48.8456L59.7145 48.7787L66.1259 61.416L64.5729 61.6047L64.5727 61.6049ZM62.6309 57.7619L59.6834 51.722L57.4806 58.3881L62.6309 57.7619Z" fill="white"/>
<path fill-rule="evenodd" clip-rule="evenodd" d="M4.78011 40.2514C4.78011 33.7194 6.24903 28.7603 8.63762 23.9831C10.353 20.5521 12.4536 17.7666 15.1103 15.11L17.059 13.2852C19.3252 11.2668 22.6596 9.1504 25.4098 7.92547C34.8447 3.72312 45.1557 3.72312 54.5906 7.92547C56.3788 8.7219 58.5737 10.013 60.1517 11.1065L63.1892 13.4777L66.4632 16.7445C67.5107 17.8704 68.9215 19.8847 69.7494 21.1313C73.0622 26.1193 75.2203 33.367 75.2203 39.7482C75.2203 46.2801 73.7514 51.2393 71.3628 56.0165C70.2481 58.2461 69.0401 60.05 67.5202 61.9851C67.3392 62.2157 67.1847 62.3796 67.0082 62.605C66.3135 63.4926 64.5409 65.2942 63.8217 65.9596C61.9032 67.7342 59.7344 69.2286 57.4971 70.5783L54.5906 72.0743C45.1557 76.2767 34.8447 76.2767 25.4098 72.0743C22.2686 70.6751 19.4316 68.7166 16.8112 66.5221L14.0402 63.8214C13.9219 63.6932 13.9239 63.6669 13.8182 63.5403L13.2854 62.9409C7.96122 56.9638 4.78011 48.2936 4.78011 40.2514ZM38.491 -8.00052e-05H41.5503C42.8682 0.050133 44.1711 0.166096 45.4369 0.349385C46.8878 0.559469 48.2534 0.803103 49.56 1.13185C55.8086 2.70422 61.2737 5.58302 66.1449 9.7041C67.0657 10.4832 68.478 11.8 69.2608 12.689C70.5424 14.1442 71.6393 15.4838 72.7943 17.08C73.8283 18.5092 74.7872 20.073 75.5777 21.6552C76.4178 23.3366 77.1296 25.0393 77.79 26.8013C78.2429 28.0098 78.6267 29.3146 78.9045 30.5923C79.5545 33.5792 79.9242 36.3199 80.0002 39.035V41.1343C79.9247 43.8093 79.5603 46.5141 78.8932 49.4586C78.367 51.7808 77.3769 54.6675 76.3517 56.7285C75.0968 59.2518 75.2152 59.0155 73.7537 61.4888C72.9815 62.7959 71.6873 64.5667 70.6438 65.7376C70.447 65.9585 70.2337 66.1821 70.0538 66.4054L68.3177 68.2543C67.4938 69.0782 66.6265 69.8154 65.7704 70.6127C64.333 71.9511 62.3911 73.1313 60.7549 74.2134C57.6128 76.2913 52.9623 78.0091 49.5097 78.8803C46.9786 79.5191 44.2476 79.8965 41.5093 79.9996H38.4499C37.1321 79.9494 35.8291 79.8335 34.5633 79.6502C29.5961 78.9308 25.0042 77.3832 20.7125 75.0734C20.4419 74.9277 20.2252 74.7845 19.9565 74.6343C17.7762 73.4161 15.7574 71.9045 13.8554 70.2952C12.868 69.4601 11.9682 68.5387 11.0535 67.6254L9.3271 65.704C6.86568 62.7984 4.70796 59.3513 3.23409 55.8222C3.10287 55.5076 3.00727 55.2858 2.88417 54.9773C2.40528 53.7781 1.98523 52.5926 1.61276 51.3431C1.42179 50.7027 1.24074 50.0733 1.09577 49.4071C0.290626 45.7066 0 43.3457 0 39.2449C0 33.596 1.53948 27.4156 4.04622 22.4105C4.19142 22.1207 4.29649 21.9027 4.44372 21.6129L4.88383 20.7953C5.54445 19.4916 6.39603 18.2286 7.23229 17.0431C7.57274 16.5603 7.89178 16.1021 8.2656 15.6236L9.35641 14.2615C10.4995 12.9792 11.6154 11.6523 12.9375 10.5471L13.9262 9.64893C15.4483 8.46476 16.7168 7.30445 18.4707 6.26889C18.7424 6.10835 18.9987 5.94893 19.2454 5.78568C19.9642 5.31034 20.8056 4.86293 21.5717 4.46415C24.4031 2.99018 27.2124 1.94607 30.4905 1.11902C33.0216 0.480209 35.7527 0.102823 38.491 -0.000305176V-8.00052e-05Z" fill="white"/>
<path fill-rule="evenodd" clip-rule="evenodd" d="M35.0184 23.6857C35.0184 23.2005 34.9762 22.4891 35.5899 22.2509C36.0262 22.0814 36.4041 22.2732 36.6956 22.4945C37.6703 23.2349 38.0671 24.907 37.5215 25.642C36.7094 26.7361 35.0184 25.0268 35.0184 23.6855V23.6857ZM36.8011 14.0074C36.527 13.8066 35.4864 11.7427 35.2355 11.3184C35.1395 11.1563 35.0899 11.0557 34.9922 10.8933C34.8831 10.7118 34.8272 10.665 34.7753 10.4421H34.6538C34.6459 10.7981 34.4619 11.2669 34.374 11.6202C34.2703 12.0376 34.1979 12.3752 34.0813 12.7856C33.4239 15.1 32.8449 17.4453 32.2593 19.7727C31.0765 24.4747 29.8148 29.0673 28.6393 33.7702L25.6139 45.4464C25.4854 45.9607 25.1612 47.4552 24.9941 47.8035C25.3454 47.7096 25.9616 46.8861 26.2236 46.6029C26.3679 46.4468 26.4971 46.3309 26.6497 46.1784L30.3264 42.5043C30.4978 42.3314 30.5476 42.2193 30.719 42.0463C32.0749 40.6759 33.5134 39.3621 34.8215 37.9476L35.6105 37.0962C36.2354 36.4711 37.6622 35.2081 38.0556 34.6207C37.8694 34.6362 37.7634 34.6783 37.6304 34.742C37.8863 33.6439 38.1866 32.9112 38.117 31.4608C38.0942 30.9839 37.859 30.3408 37.6924 30.002C37.4277 29.4638 37.248 29.2983 36.7802 28.9702C35.6801 28.199 33.2135 26.544 33.6816 24.5359C34.259 24.959 34.7697 26.0329 36.0485 26.6643C36.6449 26.9588 37.8281 26.8505 38.176 26.1752C38.4718 25.6015 38.4231 24.0867 38.4191 23.3808C38.4162 22.871 38.4806 22.4932 38.4806 21.9235C39.0055 22.679 39.5216 26.2508 39.5117 27.0892C39.5036 27.7712 39.8963 28.0106 40.1304 28.5967C40.7831 30.2319 40.901 32.0695 39.766 33.4757C39.5527 33.7398 38.886 34.2854 38.5415 34.3772C38.624 34.6866 39.1911 34.8893 39.4405 35.0577L40.4052 35.6724C40.6021 35.7886 40.6968 35.8582 40.8855 35.9818C41.0708 36.1032 41.1874 36.1602 41.3725 36.2844L44.2634 38.1322C44.9186 38.5526 45.5594 38.9363 46.1952 39.3594L50.5442 42.1182C50.728 42.2303 50.8371 42.3192 51.0206 42.4314L51.9922 43.0396C52.6456 43.4678 53.2861 43.9168 53.972 44.2796C53.9041 43.9884 49.1889 35.7544 48.2873 34.23L42.5541 24.1682C41.6493 22.5966 39.6093 19.1019 38.7237 17.428L41.6586 14.7131C42.698 13.8394 43.7996 12.946 44.4352 11.7186C44.8002 11.0138 44.9608 10.3056 45.0519 9.47902C45.0769 9.25137 45.1152 8.98387 45.0216 8.76117C45.0169 8.74969 45.0056 8.7292 45.0016 8.72019C44.9975 8.71119 44.989 8.69272 44.9808 8.67989C44.9808 9.73526 44.3241 10.5788 43.8357 11.1797C43.4296 11.6794 42.9611 12.1248 42.5054 12.5832L40.5642 14.3477C40.3958 14.4884 40.2645 14.6458 40.1069 14.8018C39.6578 15.2463 39.1131 15.6435 38.7147 16.1432C38.5503 16.3494 38.457 16.4915 38.2378 16.6383C38.1898 16.4586 38.213 16.5399 38.1163 16.3954C38.3591 15.9367 39.3816 14.9288 39.8025 14.5582C39.9162 14.4582 39.9308 14.4665 40.042 14.3724C40.136 14.2929 40.1667 14.2454 40.2607 14.1657L41.7152 12.9473C42.6597 12.1155 43.573 11.0651 43.8765 9.8233C44.0217 9.22953 44.0089 8.91834 44.0089 8.19397H43.9482C43.9482 8.71254 43.7665 9.16558 43.559 9.50581C43.3532 9.84379 43.1002 10.2137 42.8394 10.4871L40.2269 13.0385C39.5304 13.7455 38.7133 14.3711 38.0732 15.1373C37.896 15.3494 37.864 15.4487 37.6302 15.6055C37.7177 14.5539 41.1937 12.2103 41.956 11.0009C42.1591 10.6787 42.3129 10.3885 42.4182 10.005C42.5632 9.47654 42.551 9.27524 42.551 8.61909H42.4903C42.4903 9.34729 41.9165 10.1419 41.5339 10.518C41.2767 10.7708 41.1414 11.0158 40.8591 11.2405L39.7401 12.2479C39.603 12.3799 39.5155 12.4868 39.3775 12.6145C39.222 12.7582 39.1388 12.7902 38.9807 12.9466L37.205 14.816C37.2124 14.4825 37.4606 14.1268 37.6101 13.8847C37.7008 13.7381 37.7846 13.63 37.8919 13.4983C39.4668 11.5697 41.7005 10.9863 41.7005 8.25499C41.6802 8.25499 41.6599 8.25499 41.6399 8.25499C40.7416 11.2608 36.9554 12.1509 36.8009 14.0072L36.8011 14.0074Z" fill="white"/>
<path fill-rule="evenodd" clip-rule="evenodd" d="M28.1543 47.3176L51.5433 44.8268C51.436 44.6802 50.9812 44.4494 50.7781 44.3161L46.8238 41.8914C46.2579 41.5539 45.7698 41.231 45.2061 40.8969L39.6704 37.5022C39.3647 37.3185 39.1212 37.1741 38.8461 36.9899L29.4816 45.972C29.2618 46.1474 28.29 47.1147 28.1543 47.3174V47.3176Z" fill="white"/>
</svg>
