<svg width="160" height="160" viewBox="0 0 160 160" fill="none" xmlns="http://www.w3.org/2000/svg">
<g clip-path="url(#clip0_6148_16742)">
<path fill-rule="evenodd" clip-rule="evenodd" d="M50.4332 133.22C46.8686 133.654 43.6322 132.854 40.7241 130.822C37.8156 128.79 35.9411 125.998 35.1001 122.448C34.173 118.535 34.8084 115.012 37.0053 111.879C39.2022 108.746 42.2929 106.937 46.2765 106.453C48.583 106.172 50.7809 106.458 52.8705 107.311C54.9601 108.163 56.7724 109.496 58.3074 111.309L56.1501 113.131C53.5744 110.111 50.4386 108.826 46.7428 109.276C43.6236 109.655 41.2441 111.078 39.6036 113.543C37.9631 116.009 37.514 118.81 38.2571 121.945C38.92 124.744 40.3494 126.936 42.545 128.522C44.7411 130.108 47.228 130.731 50.0062 130.394C53.4396 129.976 56.0135 128.264 57.7279 125.256L60.2653 126.747C59.2629 128.548 57.911 130.012 56.2092 131.139C54.5074 132.266 52.5823 132.96 50.4327 133.221L50.4332 133.22ZM75.6823 130.15C72.1176 130.584 68.8912 129.77 66.003 127.708C63.1148 125.647 61.2565 122.867 60.4277 119.368C59.4947 115.429 60.1215 111.901 62.3085 108.782C64.4951 105.664 67.5677 103.864 71.5256 103.383C75.0902 102.949 78.3166 103.763 81.2048 105.825C84.0931 107.887 85.9514 110.666 86.7802 114.165C87.7073 118.078 87.0719 121.601 84.875 124.734C82.678 127.867 79.6135 129.673 75.6823 130.15ZM75.1768 127.333C78.2431 126.96 80.6019 125.533 82.2524 123.053C83.9032 120.573 84.3569 117.765 83.6142 114.629C82.9635 111.882 81.5453 109.709 79.3596 108.109C77.174 106.508 74.7051 105.875 71.9526 106.21C68.8601 106.586 66.4999 108.006 64.8725 110.47C63.2451 112.934 62.7996 115.721 63.5364 118.831C64.1934 121.603 65.6161 123.797 67.8049 125.41C69.9938 127.023 72.4509 127.664 75.1772 127.333H75.1768ZM106.94 99.516L106.956 100.434L92.755 124.836L108.324 122.943L108.497 125.721L87.8953 128.226L87.8408 127.312L101.963 102.921L88.3206 104.579L88.1082 101.806L106.94 99.5156V99.516ZM129.145 123.21L126.614 118.159L113.994 119.694L112.082 125.285L108.623 125.705L118.328 97.6912L119.429 97.5575L132.252 122.832L129.146 123.209L129.145 123.21ZM125.262 115.524L119.367 103.444L114.961 116.776L125.262 115.524Z" fill="#201E1E"/>
<path fill-rule="evenodd" clip-rule="evenodd" d="M9.56023 80.5028C9.56023 67.4389 12.4981 57.5206 17.2752 47.9661C20.7059 41.1043 24.9073 35.5331 30.2206 30.22L34.118 26.5704C38.6504 22.5336 45.3192 18.3008 50.8197 15.8509C69.6894 7.44623 90.3115 7.44623 109.181 15.8509C112.758 17.4438 117.147 20.0261 120.303 22.2129L126.378 26.9555L132.926 33.489C135.021 35.7407 137.843 39.7695 139.499 42.2626C146.124 52.2385 150.441 66.7341 150.441 79.4963C150.441 92.5602 147.503 102.479 142.726 112.033C140.496 116.492 138.08 120.1 135.04 123.97C134.678 124.431 134.369 124.759 134.016 125.21C132.627 126.985 129.082 130.588 127.643 131.919C123.806 135.468 119.469 138.457 114.994 141.157L109.181 144.149C90.3115 152.553 69.6894 152.553 50.8197 144.149C44.5373 141.35 38.8632 137.433 33.6225 133.044L28.0805 127.643C27.8438 127.386 27.8478 127.334 27.6363 127.081L26.5708 125.882C15.9224 113.928 9.56023 96.5872 9.56023 80.5028ZM76.9819 -0.00016001H83.1006C85.7363 0.100266 88.3423 0.332192 90.8738 0.698769C93.7756 1.11894 96.5069 1.60621 99.12 2.2637C111.617 5.40844 122.547 11.166 132.29 19.4082C134.131 20.9664 136.956 23.6 138.522 25.3779C141.085 28.2885 143.279 30.9675 145.589 34.16C147.657 37.0183 149.574 40.1459 151.155 43.3105C152.836 46.6732 154.259 50.0787 155.58 53.6026C156.486 56.0196 157.253 58.6293 157.809 61.1845C159.109 67.1583 159.848 72.6399 160 78.0701V82.2686C159.849 87.6187 159.121 93.0282 157.786 98.9173C156.734 103.562 154.754 109.335 152.703 113.457C150.194 118.504 150.43 118.031 147.507 122.978C145.963 125.592 143.375 129.133 141.288 131.475C140.894 131.917 140.467 132.364 140.108 132.811L136.635 136.509C134.988 138.156 133.253 139.631 131.541 141.225C128.666 143.902 124.782 146.263 121.51 148.427C115.226 152.583 105.925 156.018 99.0195 157.761C93.9573 159.038 88.4951 159.793 83.0186 159.999H76.8998C74.2641 159.899 71.6582 159.667 69.1267 159.3C59.1922 157.862 50.0085 154.766 41.425 150.147C40.8838 149.855 40.4505 149.569 39.913 149.269C35.5525 146.832 31.5148 143.809 27.7107 140.59C25.7361 138.92 23.9364 137.077 22.107 135.251L18.6542 131.408C13.7314 125.597 9.41593 118.703 6.46818 111.644C6.20574 111.015 6.01454 110.572 5.76833 109.955C4.81055 107.556 3.97046 105.185 3.22552 102.686C2.84358 101.405 2.48148 100.147 2.19153 98.8141C0.581252 91.4132 0 86.6914 0 78.4898C0 67.1921 3.07897 54.8311 8.09244 44.8209C8.38284 44.2414 8.59298 43.8054 8.88744 43.2258L9.76766 41.5906C11.0889 38.9832 12.7921 36.4572 14.4646 34.0862C15.1455 33.1206 15.7836 32.2042 16.5312 31.2472L18.7128 28.5231C20.999 25.9584 23.2307 23.3045 25.875 21.0943L27.8523 19.2979C30.8966 16.9295 33.4335 14.6089 36.9413 12.5378C37.4847 12.2167 37.9974 11.8979 38.4907 11.5714C39.9283 10.6207 41.6112 9.72586 43.1435 8.9283C48.8063 5.98037 54.4249 3.89214 60.981 2.23804C66.0432 0.960417 71.5053 0.205646 76.9819 -0.000610352V-0.00016001Z" fill="#201E1E"/>
<path fill-rule="evenodd" clip-rule="evenodd" d="M70.0368 47.3715C70.0368 46.401 69.9524 44.9784 71.1799 44.5019C72.0524 44.1628 72.8082 44.5465 73.3912 44.9892C75.3406 46.4699 76.1343 49.8141 75.043 51.284C73.4188 53.4722 70.0368 50.0537 70.0368 47.371V47.3715ZM73.6023 28.0149C73.0539 27.6132 70.9729 23.4854 70.471 22.6369C70.2789 22.3127 70.1797 22.1114 69.9844 21.7867C69.7662 21.4237 69.6544 21.33 69.5507 20.8842H69.3076C69.2918 21.5962 68.9239 22.5338 68.748 23.2404C68.5406 24.0753 68.3958 24.7504 68.1627 25.5714C66.8478 30.2 65.6898 34.8907 64.5187 39.5454C62.1531 48.9495 59.6297 58.1346 57.2785 67.5404L51.2279 90.8929C50.9709 91.9215 50.3224 94.9104 49.9883 95.607C50.6908 95.4193 51.9232 93.7724 52.4472 93.2058C52.7358 92.8937 52.9942 92.6618 53.2995 92.3569L60.6528 85.0087C60.9956 84.6629 61.0952 84.4386 61.4379 84.0927C64.1498 81.352 67.0268 78.7242 69.6431 75.8952L71.2209 74.1924C72.4709 72.9423 75.3244 70.4163 76.1113 69.2414C75.7388 69.2725 75.5269 69.3567 75.2608 69.4841C75.7726 67.2878 76.3733 65.8224 76.2339 62.9217C76.1884 61.9679 75.7181 60.6817 75.3848 60.004C74.8554 58.9277 74.496 58.5967 73.5603 57.9405C71.3602 56.3981 66.427 53.0881 67.3632 49.072C68.518 49.9181 69.5394 52.0658 72.0971 53.3286C73.2898 53.9176 75.6563 53.701 76.3521 52.3504C76.9437 51.203 76.8463 48.1735 76.8382 46.7617C76.8323 45.7421 76.9613 44.9865 76.9613 43.8471C78.0111 45.358 79.0432 52.5018 79.0234 54.1784C79.0072 55.5425 79.7927 56.0212 80.2608 57.1934C81.5662 60.4638 81.802 64.139 79.532 66.9514C79.1055 67.4796 77.7721 68.5708 77.083 68.7546C77.2481 69.3733 78.3822 69.7786 78.8809 70.1155L80.8104 71.3449C81.2041 71.5773 81.3935 71.7165 81.7709 71.9637C82.1416 72.2064 82.3747 72.3204 82.7449 72.569L88.5268 76.2644C89.8372 77.1052 91.1188 77.8726 92.3904 78.7188L101.088 84.2364C101.456 84.4607 101.674 84.6385 102.041 84.8628L103.984 86.0792C105.291 86.9357 106.572 87.8337 107.944 88.5592C107.808 87.9769 98.3779 71.5088 96.5746 68.46L85.1083 48.3365C83.2987 45.1932 79.2187 38.2039 77.4474 34.856L83.3172 29.4263C85.396 27.679 87.5992 25.892 88.8704 23.4372C89.6005 22.0276 89.9215 20.6113 90.1037 18.9581C90.1538 18.5028 90.2304 17.9678 90.0433 17.5224C90.0338 17.4994 90.0113 17.4585 90.0032 17.4404C89.995 17.4224 89.9779 17.3855 89.9617 17.3598C89.9617 19.4706 88.6481 21.1576 87.6714 22.3595C86.8593 23.3588 85.9222 24.2496 85.0109 25.1665L81.1284 28.6954C80.7915 28.9768 80.5291 29.2916 80.2139 29.6037C79.3156 30.4927 78.2261 31.2871 77.4293 32.2864C77.1006 32.6989 76.9139 32.9831 76.4756 33.2767C76.3796 32.9173 76.426 33.0799 76.2326 32.7908C76.7182 31.8734 78.7632 29.8577 79.6051 29.1164C79.8324 28.9165 79.8617 28.9332 80.084 28.7449C80.272 28.5859 80.3334 28.4909 80.5214 28.3315L83.4304 25.8947C85.3193 24.2311 87.1461 22.1303 87.753 19.6467C88.0434 18.4591 88.0177 17.8367 88.0177 16.388H87.8964C87.8964 17.4251 87.533 18.3312 87.1181 19.0117C86.7064 19.6876 86.2004 20.4276 85.6787 20.9743L80.4538 26.0771C79.0608 27.4912 77.4266 28.7422 76.1464 30.2747C75.792 30.6989 75.728 30.8975 75.2604 31.211C75.4353 29.1079 82.3874 24.4207 83.912 22.002C84.3183 21.3575 84.6258 20.777 84.8364 20.0101C85.1263 18.9531 85.102 18.5505 85.102 17.2382H84.9807C84.9807 18.6946 83.833 20.2839 83.0678 21.036C82.5533 21.5417 82.2827 22.0317 81.7182 22.4811L79.4802 24.4959C79.206 24.7598 79.0311 24.9738 78.7551 25.2291C78.4439 25.5164 78.2776 25.5804 77.9615 25.8933L74.4099 29.6321C74.4248 28.9651 74.9213 28.2536 75.2202 27.7695C75.4015 27.4763 75.5693 27.2601 75.7839 26.9967C78.9337 23.1395 83.4011 21.9727 83.4011 16.51C83.3605 16.51 83.3199 16.51 83.2798 16.51C81.4832 22.5216 73.9107 24.3018 73.6018 28.0145L73.6023 28.0149Z" fill="#201E1E"/>
<path fill-rule="evenodd" clip-rule="evenodd" d="M56.3086 94.6352L103.087 89.6535C102.872 89.3604 101.962 88.8988 101.556 88.6322L93.6476 83.7829C92.5158 83.1078 91.5395 82.462 90.4122 81.7937L79.3409 75.0044C78.7294 74.6369 78.2424 74.3482 77.6923 73.9799L58.9632 91.944C58.5236 92.2948 56.5801 94.2294 56.3086 94.6347V94.6352Z" fill="#201E1E"/>
</g>
<defs>
<clipPath id="clip0_6148_16742">
<rect width="160" height="160" fill="white"/>
</clipPath>
</defs>
</svg>
