<svg width="240" height="240" viewBox="0 0 240 240" fill="none" xmlns="http://www.w3.org/2000/svg">
<g clip-path="url(#clip0_6148_16742)">
<path fill-rule="evenodd" clip-rule="evenodd" d="M75.6478 199.831C70.3009 200.48 65.4464 199.281 61.0843 196.233C56.7215 193.184 53.9097 188.997 52.6482 183.672C51.2575 177.802 52.2106 172.518 55.506 167.818C58.8014 163.119 63.4375 160.405 69.4128 159.679C72.8726 159.258 76.1693 159.687 79.3038 160.966C82.4382 162.244 85.1566 164.243 87.4591 166.963L84.2232 169.696C80.3596 165.167 75.6559 163.24 70.1122 163.914C65.4335 164.482 61.8642 166.616 59.4034 170.315C56.9427 174.013 56.269 178.214 57.3837 182.917C58.378 187.115 60.5222 190.404 63.8156 192.782C67.1096 195.161 70.84 196.097 75.0073 195.59C80.1574 194.964 84.0183 192.395 86.5899 187.884L90.396 190.12C88.8924 192.822 86.8646 195.018 84.3118 196.708C81.7591 198.399 78.8715 199.439 75.6471 199.831L75.6478 199.831ZM113.521 195.226C108.175 195.876 103.335 194.655 99.0025 191.562C94.6702 188.47 91.8828 184.3 90.6395 179.053C89.2401 173.144 90.1803 167.851 93.4608 163.173C96.7407 158.495 101.35 155.795 107.286 155.074C112.633 154.424 117.473 155.645 121.805 158.737C126.138 161.83 128.925 166 130.168 171.247C131.559 177.117 130.606 182.401 127.311 187.101C124.015 191.8 119.418 194.509 113.521 195.226ZM112.763 190.999C117.363 190.44 120.901 188.3 123.377 184.58C125.853 180.86 126.533 176.648 125.419 171.944C124.443 167.824 122.316 164.564 119.037 162.163C115.759 159.762 112.056 158.812 107.927 159.315C103.288 159.879 99.7479 162.009 97.3068 165.705C94.8657 169.401 94.1974 173.582 95.3026 178.246C96.2881 182.405 98.4222 185.695 101.705 188.115C104.989 190.535 108.674 191.496 112.764 190.999H112.763ZM160.409 149.274L160.432 150.651L139.131 187.253L162.484 184.414L162.743 188.581L131.841 192.339L131.759 190.969L152.943 154.381L132.479 156.869L132.16 152.708L160.409 149.273V149.274ZM193.716 184.815L189.919 177.238L170.989 179.54L168.122 187.927L162.932 188.558L177.49 146.537L179.142 146.336L198.376 184.248L193.717 184.814L193.716 184.815ZM187.891 173.286L179.048 155.166L172.44 175.164L187.891 173.286Z" fill="#201E1E"/>
<path fill-rule="evenodd" clip-rule="evenodd" d="M14.3384 120.754C14.3384 101.158 18.7451 86.2808 25.9109 71.9491C31.057 61.6564 37.359 53.2996 45.329 45.3299L51.1751 39.8556C57.9736 33.8003 67.9769 27.4511 76.2276 23.7764C104.532 11.1693 135.465 11.1693 163.77 23.7764C169.134 26.1656 175.719 30.039 180.453 33.3193L189.566 40.4331L199.388 50.2334C202.53 53.611 206.763 59.6541 209.246 63.3938C219.185 78.3577 225.659 100.101 225.659 119.244C225.659 138.84 221.252 153.718 214.087 168.049C210.742 174.738 207.118 180.15 202.559 185.955C202.016 186.647 201.552 187.139 201.023 187.815C198.939 190.478 193.621 195.883 191.463 197.879C185.708 203.202 179.201 207.686 172.489 211.735L163.77 216.223C135.465 228.83 104.532 228.83 76.2276 216.223C66.804 212.025 58.2928 206.15 50.4317 199.566L42.1188 191.464C41.7637 191.08 41.7698 191.001 41.4525 190.621L39.8542 188.823C23.8817 170.891 14.3384 144.881 14.3384 120.754ZM115.471 -0.000301051H124.649C128.603 0.150338 132.511 0.498227 136.309 1.04809C140.661 1.67835 144.758 2.40925 148.678 3.3955C167.424 8.11259 183.819 16.749 198.433 29.1122C201.195 31.4495 205.432 35.3999 207.78 38.0668C211.625 42.4326 214.916 46.4513 218.381 51.24C221.483 55.5274 224.36 60.2189 226.731 64.9657C229.251 70.0097 231.387 75.1179 233.368 80.4038C234.727 84.0293 235.878 87.9439 236.711 91.7767C238.661 100.737 239.771 108.96 239.999 117.105V123.403C239.772 131.428 238.679 139.542 236.678 148.376C235.099 155.342 232.129 164.002 229.053 170.185C225.288 177.755 225.644 177.047 221.259 184.466C218.942 188.388 215.06 193.7 211.93 197.213C211.339 197.875 210.699 198.546 210.159 199.216L204.951 204.763C202.48 207.235 199.877 209.446 197.309 211.838C192.997 215.853 187.171 219.394 182.263 222.64C172.836 228.874 158.885 234.027 148.527 236.641C140.934 238.557 132.741 239.689 124.526 239.999H115.348C111.394 239.848 107.485 239.5 103.688 238.95C88.7863 236.792 75.0107 232.149 62.1355 225.22C61.3238 224.783 60.6738 224.353 59.8675 223.903C53.3267 220.248 47.2702 215.714 41.5641 210.886C38.6022 208.38 35.9027 205.616 33.1585 202.876L27.9793 197.112C20.5951 188.395 14.1219 178.054 9.70032 167.466C9.30665 166.523 9.01986 165.857 8.65055 164.932C7.21388 161.334 5.95374 157.778 4.83633 154.029C4.26342 152.108 3.72027 150.22 3.28535 148.221C0.869926 137.12 -0.00195312 130.037 -0.00195312 117.735C-0.00195312 100.788 4.6165 82.2466 12.1367 67.2313C12.5723 66.362 12.8875 65.7081 13.3292 64.8387L14.6495 62.3859C16.6314 58.4747 19.1861 54.6857 21.6949 51.1292C22.7163 49.6809 23.6734 48.3062 24.7948 46.8708L28.0673 42.7846C31.4966 38.9375 34.8441 34.9568 38.8105 31.6413L41.7765 28.9467C46.3429 25.3942 50.1483 21.9133 55.41 18.8066C56.2251 18.325 56.9942 17.8467 57.7341 17.357C59.8905 15.931 62.4148 14.5887 64.7132 13.3924C73.2075 8.97049 81.6354 5.83815 91.4696 3.35699C99.0628 1.44057 107.256 0.308408 115.471 -0.000976562V-0.000301051Z" fill="#201E1E"/>
<path fill-rule="evenodd" clip-rule="evenodd" d="M105.053 71.0571C105.053 69.6014 104.927 67.4674 106.768 66.7527C108.077 66.2441 109.21 66.8196 110.085 67.4836C113.009 69.7047 114.199 74.7211 112.563 76.926C110.126 80.2083 105.053 75.0805 105.053 71.0564V71.0571ZM110.401 42.0223C109.579 41.4197 106.457 35.228 105.705 33.9553C105.416 33.4689 105.268 33.167 104.975 32.6799C104.647 32.1355 104.48 31.995 104.324 31.3262H103.959C103.936 32.3942 103.384 33.8006 103.12 34.8605C102.809 36.1129 102.592 37.1255 102.242 38.3569C100.27 45.2999 98.5327 52.336 96.7761 59.3181C93.2277 73.4241 89.4426 87.2018 85.9158 101.311L76.8399 136.339C76.4543 137.882 75.4817 142.365 74.9805 143.41C76.0343 143.129 77.8829 140.658 78.6689 139.809C79.1018 139.341 79.4893 138.993 79.9473 138.535L90.9773 127.513C91.4914 126.994 91.6409 126.658 92.1549 126.139C96.2228 122.028 100.538 118.086 104.463 113.843L106.829 111.289C108.704 109.413 112.985 105.624 114.165 103.862C113.606 103.909 113.288 104.035 112.889 104.226C113.657 100.932 114.558 98.7335 114.349 94.3825C114.281 92.9518 113.575 91.0225 113.075 90.0059C112.281 88.3914 111.742 87.8949 110.339 86.9107C107.038 84.5971 99.6386 79.6321 101.043 73.6078C102.775 74.8771 104.307 78.0986 108.144 79.9928C109.933 80.8763 113.482 80.5514 114.526 78.5256C115.414 76.8044 115.267 72.2602 115.255 70.1425C115.247 68.6131 115.44 67.4796 115.44 65.7706C117.015 68.0369 118.563 78.7525 118.533 81.2675C118.509 83.3136 119.687 84.0317 120.389 85.79C122.347 90.6956 122.701 96.2084 119.296 100.427C118.656 101.219 116.656 102.856 115.623 103.132C115.87 104.06 117.571 104.668 118.319 105.173L121.214 107.017C121.804 107.366 122.088 107.575 122.654 107.945C123.21 108.31 123.56 108.48 124.115 108.853L132.788 114.397C134.754 115.658 136.676 116.809 138.584 118.078L151.631 126.354C152.182 126.691 152.509 126.958 153.06 127.294L155.975 129.119C157.935 130.404 159.856 131.75 161.914 132.839C161.71 131.965 147.565 107.263 144.86 102.69L127.66 72.5047C124.946 67.7897 118.826 57.3057 116.169 52.284L124.974 44.1393C128.092 41.5183 131.397 38.8379 133.304 35.1557C134.399 33.0413 134.88 30.9169 135.154 28.4371C135.229 27.7541 135.344 26.9516 135.063 26.2835C135.049 26.2491 135.015 26.1876 135.003 26.1606C134.991 26.1336 134.965 26.0782 134.941 26.0397C134.941 29.2058 132.97 31.7363 131.505 33.5392C130.287 35.0382 128.881 36.3743 127.514 37.7497L121.691 43.043C121.185 43.4652 120.792 43.9373 120.319 44.4055C118.971 45.7389 117.337 46.9305 116.142 48.4295C115.649 49.0483 115.369 49.4745 114.711 49.9149C114.567 49.3759 114.637 49.6197 114.347 49.1861C115.075 47.8101 118.143 44.7865 119.406 43.6746C119.747 43.3746 119.791 43.3996 120.124 43.1173C120.406 42.8788 120.498 42.7363 120.78 42.4972L125.144 38.842C127.977 36.3466 130.717 33.1954 131.628 29.4699C132.063 27.6886 132.025 26.755 132.025 24.5819H131.843C131.843 26.1376 131.297 27.4967 130.675 28.5174C130.058 29.5314 129.299 30.6412 128.516 31.4613L120.679 39.1155C118.589 41.2366 116.138 43.1132 114.218 45.412C113.686 46.0483 113.59 46.3462 112.889 46.8164C113.151 43.6617 123.579 36.631 125.866 33.0028C126.475 32.0362 126.937 31.1654 127.253 30.015C127.688 28.4296 127.651 27.8257 127.651 25.8573H127.469C127.469 28.0419 125.748 30.4258 124.6 31.5539C123.828 32.3125 123.422 33.0474 122.575 33.7216L119.218 36.7438C118.807 37.1397 118.545 37.4605 118.131 37.8436C117.664 38.2745 117.414 38.3705 116.94 38.8399L111.613 44.448C111.635 43.4476 112.38 42.3803 112.828 41.6541C113.1 41.2144 113.352 40.8901 113.674 40.4949C118.399 34.7092 125.1 32.9589 125.1 24.765C125.039 24.765 124.978 24.765 124.918 24.765C122.223 33.7824 110.864 36.4527 110.401 42.0216L110.401 42.0223Z" fill="#201E1E"/>
<path fill-rule="evenodd" clip-rule="evenodd" d="M84.459 141.953L154.626 134.48C154.304 134.04 152.94 133.348 152.33 132.948L140.468 125.674C138.77 124.662 137.305 123.693 135.614 122.691L119.007 112.507C118.09 111.955 117.36 111.522 116.535 110.97L88.4409 137.916C87.7815 138.442 84.8662 141.344 84.459 141.952V141.953Z" fill="#201E1E"/>
</g>
<defs>
<clipPath id="clip0_6148_16742">
<rect width="240" height="240" fill="white"/>
</clipPath>
</defs>
</svg>
